<?xml version="1.0" standalone="no"?>
<!DOCTYPE svg PUBLIC "-//W3C//DTD SVG 20010904//EN"
 "http://www.w3.org/TR/2001/REC-SVG-20010904/DTD/svg10.dtd">
<svg version="1.0" xmlns="http://www.w3.org/2000/svg"
 width="188.000000pt" height="188.000000pt" viewBox="0 0 188.000000 188.000000"
 preserveAspectRatio="xMidYMid meet">
<metadata>
Created by potrace 1.14, written by Peter Selinger 2001-2017
</metadata>
<g transform="translate(0.000000,188.000000) scale(0.100000,-0.100000)"
fill="#000000" stroke="none">
<path d="M1110 1555 c-8 -2 -32 -6 -52 -10 l-38 -6 0 -533 0 -534 33 -5 c73
-11 304 -7 367 7 177 39 267 128 278 277 9 123 -49 222 -158 273 l-49 23 52
34 c94 62 137 177 108 287 -23 84 -115 157 -229 181 -47 10 -273 14 -312 6z
m287 -120 c98 -29 145 -124 109 -219 -33 -86 -93 -117 -243 -124 l-103 -5 0
176 c0 131 3 177 13 180 28 12 176 6 224 -8z m38 -482 c79 -42 115 -98 115
-179 0 -55 -19 -101 -56 -136 -49 -46 -99 -61 -221 -66 l-113 -5 0 208 0 207
118 -4 c95 -3 125 -8 157 -25z"/>
<path d="M100 1490 l0 -60 165 0 165 0 0 -480 0 -480 70 0 70 0 0 480 0 480
165 0 165 0 0 60 0 60 -400 0 -400 0 0 -60z"/>
<path d="M0 300 l0 -50 938 0 939 0 2 50 1 50 -940 0 -940 0 0 -50z"/>
</g>
</svg>
